# xmcd CD database file
#
# Track frame offsets:
#	150
#	33060
#	60120
#	73255
#	100345
#	123055
#	154587
#	172662
#	185760
#	206782
#	228020
#	251667
#	277917
#	299730
#	340900
#
# Disc length: 4795 seconds
#
# Revision: 0
# Processed by: cddbd v1.5.1PL2 Copyright (c) Steve Scherf et al.
# Submitted via: CDex 1.51
#
DISCID=cd12b90f
DTITLE=Yoji Biomehanika - THE FUTURE OF HARD DANCE 002
DYEAR=2004
DGENRE=Hard House
TTITLE0=EUROTRASH - GET UP,GET DOWN <YOJI BIOMEHANIKA REMIX>
TTITLE1=YOJI BIOMEHANIKA - SAMURAI <THE KEYBOARD COWBOYS>
TTITLE2=MISS DISTESS X MEETS PRO-GRESS - HOUSE OF PAIN 004 <CLUB MIX>
TTITLE3=DERLER&KLITZING - LIFT ME UP
TTITLE4=REMO-CON - G-SIGH
TTITLE5=DJ SCOT PROJECT - FM 1 <FEELIN'ME>
TTITLE6=PHILIPPE ROCHARD REMIX)(DA BRAINBLASTERS - BACK AGAIN
TTITLE7=VIRUS INC. - THE VIRUS <ORIG.CLUB MIX>
TTITLE8=MANUEL ES - COME WITH ME <MAIN VERSION>
TTITLE9=DARK BY DESIGN - BLACKOUT
TTITLE10=HEAVENS CRY - TILL TEARS DO US PART <YOJI BIOMEHANIKA REMIX>
TTITLE11=YOJI BIOMEHANIKA - HARDSTYLE DISCO
TTITLE12=CORETEX - OUT THERE
TTITLE13=GOURYELLA - LIGAYA <YOJI BIOMEHANIKA REMIX>
TTITLE14=datatrack
EXTD=YEAR: 2004
EXTT0=
EXTT1=
EXTT2=
EXTT3=
EXTT4=
EXTT5=
EXTT6=
EXTT7=
EXTT8=
EXTT9=
EXTT10=
EXTT11=
EXTT12=
EXTT13=
EXTT14=
PLAYORDER=
